<?xml version="1.0" encoding="UTF-8" standalone="no"?>
<!-- Generator: Adobe Illustrator 18.0.0, SVG Export Plug-In . SVG Version: 6.00 Build 0)  -->

<svg
   xmlns:dc="http://purl.org/dc/elements/1.1/"
   xmlns:cc="http://creativecommons.org/ns#"
   xmlns:rdf="http://www.w3.org/1999/02/22-rdf-syntax-ns#"
   xmlns:svg="http://www.w3.org/2000/svg"
   xmlns="http://www.w3.org/2000/svg"
   xmlns:sodipodi="http://sodipodi.sourceforge.net/DTD/sodipodi-0.dtd"
   xmlns:inkscape="http://www.inkscape.org/namespaces/inkscape"
   version="1.1"
   id="Capa_1"
   x="0px"
   y="0px"
   viewBox="0 0 136.134 100.828"
   xml:space="preserve"
   inkscape:version="0.91 r13725"
   sodipodi:docname="casualtyRoom.svg"
   width="136.134"
   height="100.828"><metadata
     id="metadata39"><rdf:RDF><cc:Work
         rdf:about=""><dc:format>image/svg+xml</dc:format><dc:type
           rdf:resource="http://purl.org/dc/dcmitype/StillImage" /><dc:title></dc:title></cc:Work></rdf:RDF></metadata><defs
     id="defs37" /><sodipodi:namedview
     pagecolor="#ffffff"
     bordercolor="#666666"
     borderopacity="1"
     objecttolerance="10"
     gridtolerance="10"
     guidetolerance="10"
     inkscape:pageopacity="0"
     inkscape:pageshadow="2"
     inkscape:window-width="1321"
     inkscape:window-height="705"
     id="namedview35"
     showgrid="false"
     inkscape:zoom="3.4790813"
     inkscape:cx="33.917"
     inkscape:cy="56.911576"
     inkscape:window-x="45"
     inkscape:window-y="30"
     inkscape:window-maximized="1"
     inkscape:current-layer="Capa_1" /><path
     style="fill:#ffffff"
     d="m 136.08528,23.020926 c -0.41742,-3.299273 -3.42766,-5.62122 -6.73094,-5.213822 l -26.63111,3.385585 -96.7026455,0 C 2.6952164,21.192689 0,23.887875 0,27.213267 c 0,3.325384 2.6952164,6.020577 6.0205845,6.020577 l 37.6005635,0 21.607879,21.607892 -25.481115,25.479073 c -1.384747,-0.74651 -2.944079,-1.208091 -4.623826,-1.208091 -5.424543,0 -9.83563,4.413095 -9.83563,9.835637 0,5.424539 4.413103,9.837635 9.83563,9.837635 5.42457,0 9.837652,-4.413096 9.837652,-9.837635 0,-2.285826 -0.816789,-4.364934 -2.129292,-6.036652 l 4.258572,-4.258567 33.016885,0 c 1.107782,0 2.006826,-0.899056 2.006826,-2.00684 0,-1.107806 -0.899044,-2.006862 -2.006826,-2.006862 l -29.003182,0 16.962012,-16.961993 24.86103,24.86097 c -1.497152,1.725923 -2.436362,3.949518 -2.436362,6.409944 0,5.424539 4.413077,9.837635 9.837639,9.837635 5.42453,0 9.83563,-4.413096 9.83563,-9.837635 0,-5.424551 -4.41307,-9.835637 -9.83563,-9.835637 -1.501164,0 -2.909948,0.365257 -4.184341,0.969321 l -25.240271,-25.242315 21.607881,-21.60787 10.592231,0 c 0.25285,0 0.50772,-0.01573 0.75858,-0.04822 l 27.00836,-3.431728 c 3.29728,-0.419443 5.63329,-3.431742 5.2138,-6.731026 z M 35.122099,94.772271 c -3.210959,0 -5.821948,-2.612937 -5.821948,-5.823916 0,-3.210972 2.612959,-5.821889 5.821948,-5.821889 3.210968,0 5.823902,2.6129 5.823902,5.821889 0,3.210979 -2.610931,5.823916 -5.823902,5.823916 z m 71.028841,-5.823916 c 0,3.210979 -2.61291,5.823916 -5.8219,5.823916 -3.211009,0 -5.823908,-2.612937 -5.823908,-5.823916 0,-3.210972 2.612899,-5.821889 5.823908,-5.821889 3.20899,0 5.8219,2.610917 5.8219,5.821889 z M 83.802537,36.266229 c -0.04608,-0.0026 -0.08623,-0.02621 -0.134504,-0.02621 l -20.953666,0 c -1.107774,0 -2.006826,0.899074 -2.006826,2.006871 0,1.107787 0.899052,2.006847 2.006826,2.006847 l 17.100484,0 -11.748152,11.748183 -18.770182,-18.770176 37.538339,0 -3.032357,3.034363 z m 18.162083,-18.82238 c -0.24281,-1.643604 0.89509,-3.174843 2.54072,-3.41567 l 23.32975,-3.431722 c 1.63158,-0.250864 3.17483,0.895048 3.41564,2.540699 0.24092,1.645613 -0.89504,3.174834 -2.54064,3.415669 l -23.32979,3.431727 c -0.14868,0.02214 -0.29499,0.032 -0.44149,0.032 -1.46901,0 -2.75543,-1.075674 -2.97419,-2.572797 z M 36.683431,88.948355 c 0,0.860946 -0.69839,1.559323 -1.559345,1.559323 -0.860934,0 -1.55933,-0.698377 -1.55933,-1.559323 0,-0.860956 0.698396,-1.559345 1.55933,-1.559345 0.860955,0 1.559345,0.698389 1.559345,1.559345 z m 62.084275,0 c 0,-0.860956 0.698393,-1.559345 1.559344,-1.559345 0.86092,0 1.55932,0.698389 1.55932,1.559345 0,0.860946 -0.6984,1.559323 -1.55932,1.559323 -0.860951,0 -1.559344,-0.696383 -1.559344,-1.559323 z M 14.549749,17.006367 c 0,-7.746477 5.926242,-14.0480326 13.211161,-14.0480326 l 58.118724,0 c 7.282895,0 13.211163,6.3015556 13.211163,14.0480326 0,1.107783 -0.899068,2.006857 -2.006841,2.006857 -1.107807,0 -2.00688,-0.899074 -2.00688,-2.006857 0,-5.532916 -4.126099,-10.0343131 -9.197442,-10.0343131 l -5.35634,0 0,10.0343131 c 0,1.107783 -0.899045,2.006857 -2.006834,2.006857 -1.107791,0 -2.00687,-0.899074 -2.00687,-2.006857 l 0,-10.0343131 -39.380639,0 0,10.0343131 c 0,1.107783 -0.89907,2.006857 -2.006852,2.006857 -1.107786,0 -2.006882,-0.899074 -2.006882,-2.006857 l 0,-10.0343131 -5.356297,0 c -5.071346,0 -9.197451,4.5013971 -9.197451,10.0343131 0,1.107783 -0.89908,2.006857 -2.006865,2.006857 -1.107785,0 -2.004855,-0.899074 -2.004855,-2.006857 z"
     id="path3"
     inkscape:connector-curvature="0" /><g
     id="g5"
     transform="translate(0,32.993986)" /><g
     id="g7"
     transform="translate(0,32.993986)" /><g
     id="g9"
     transform="translate(0,32.993986)" /><g
     id="g11"
     transform="translate(0,32.993986)" /><g
     id="g13"
     transform="translate(0,32.993986)" /><g
     id="g15"
     transform="translate(0,32.993986)" /><g
     id="g17"
     transform="translate(0,32.993986)" /><g
     id="g19"
     transform="translate(0,32.993986)" /><g
     id="g21"
     transform="translate(0,32.993986)" /><g
     id="g23"
     transform="translate(0,32.993986)" /><g
     id="g25"
     transform="translate(0,32.993986)" /><g
     id="g27"
     transform="translate(0,32.993986)" /><g
     id="g29"
     transform="translate(0,32.993986)" /><g
     id="g31"
     transform="translate(0,32.993986)" /><g
     id="g33"
     transform="translate(0,32.993986)" /></svg>