<?xml version="1.0" encoding="iso-8859-1"?>
<!-- Generator: Adobe Illustrator 16.0.0, SVG Export Plug-In . SVG Version: 6.00 Build 0)  -->
<!DOCTYPE svg PUBLIC "-//W3C//DTD SVG 1.1//EN" "http://www.w3.org/Graphics/SVG/1.1/DTD/svg11.dtd">
<svg version="1.1" id="Capa_1" xmlns="http://www.w3.org/2000/svg" xmlns:xlink="http://www.w3.org/1999/xlink" x="0px" y="0px"
	 width="545.588px" height="545.588px" viewBox="0 0 545.588 545.588" style="enable-background:new 0 0 545.588 545.588;"
	 xml:space="preserve">
<g>
	<g>
		<path d="M351.013,373.774c34.234-14.239,49.582-36.749,52.316-51.857c1.071-5.91,0.89-14.287-6.053-20.646
			c-3.462-3.175-7.009-4.715-10.863-4.715c-10.729,0-22.462,11.628-25.723,15.702l-2.878,3.566h-9.181l-3.06-3.576
			c-3.528-4.352-15.07-15.702-25.733-15.702c-3.854,0-7.4,1.54-10.862,4.715c-7,6.426-7.144,15.166-6.015,21.362
			C305.878,338.756,321.818,360.271,351.013,373.774z"/>
		<path d="M480.375,516.638c12.469,0,20.071-12.402,20.071-24.872V292.34c0-12.47-7.114-28.286-17.403-35.333L288.866,123.227
			c-10.289-7.048-26.986-6.99-37.237,0.115L69.77,249.375c-10.242,7.105-18.762,22.969-18.762,35.439v206.951
			c0,12.47,10.528,24.872,22.998,24.872H480.375z M296.048,287.166c7.048-6.464,15.052-9.744,23.791-9.744
			c13.933,0,25.963,8.473,33.287,15.138c7.325-6.665,19.354-15.138,33.287-15.138c8.74,0,16.734,3.28,23.792,9.744
			c10.423,9.562,14.669,23.113,11.943,38.154c-4.398,24.289-25.407,47.431-55.577,62.233v53.282l17.528-15.195
			c3.528-3.041,8.864-2.658,11.905,0.852c3.05,3.519,2.677,8.854-0.852,11.905l-33.096,28.688c-0.43,0.373-0.946,0.564-1.425,0.842
			c-0.315,0.182-0.593,0.411-0.928,0.545c-1.022,0.42-2.094,0.679-3.175,0.679l0,0l0,0c-1.08,0-2.151-0.259-3.175-0.679
			c-0.334-0.134-0.602-0.363-0.918-0.545c-0.478-0.277-0.994-0.469-1.425-0.842l-31.747-27.512
			c-3.528-3.05-3.901-8.386-0.852-11.905c3.051-3.519,8.387-3.901,11.905-0.851l17.127,14.851v-48.664
			c-33.698-14.238-58.475-40.296-63.304-66.966C281.341,310.575,285.567,296.776,296.048,287.166z M133.514,287.166
			c7.076-6.483,15.099-9.763,23.858-9.763c13.971,0,26.048,8.491,33.383,15.176c7.334-6.685,19.402-15.176,33.382-15.176
			c8.759,0,16.782,3.289,23.858,9.763c10.452,9.592,14.708,23.18,11.973,38.279c-4.428,24.432-25.589,47.697-55.96,62.538v23.467
			h19.125c5.278,0,9.562,4.274,9.562,9.562s-4.284,9.562-9.562,9.562h-19.125V449.7c0,5.288-4.284,9.562-9.562,9.562
			s-9.562-4.274-9.562-9.562v-19.125h-19.125c-5.278,0-9.562-4.274-9.562-9.562s4.284-9.562,9.562-9.562h19.125v-18.227
			c-33.688-14.286-58.465-40.363-63.304-67.071C118.768,310.652,123.004,296.806,133.514,287.166z"/>
		<path d="M188.661,374.09c34.329-14.287,49.734-36.883,52.479-52.049c1.081-5.948,0.899-14.373-6.072-20.77
			c-3.481-3.194-7.057-4.743-10.939-4.743c-10.71,0-22.291,11.36-25.848,15.739l-2.869,3.538l-9.142,0.02l-3.07-3.576
			c-3.538-4.36-15.118-15.73-25.828-15.73c-3.873,0-7.459,1.549-10.939,4.743c-7.038,6.454-7.172,15.242-6.043,21.478
			C143.334,338.947,159.342,360.549,188.661,374.09z"/>
		<path d="M535.713,208.601L288.876,39.938c-10.299-7.038-26.89-6.904-37.074,0.296L9.545,211.441
			c-10.175,7.191-12.604,21.286-5.403,31.46l0.593,0.842c7.201,10.184,21.286,12.604,31.47,5.403L250.999,97.341
			c10.184-7.201,26.804-7.363,37.131-0.383l221.63,149.959c10.328,6.99,24.365,4.284,31.347-6.043l0.583-0.861
			C548.689,229.705,546.002,215.629,535.713,208.601z"/>
		<path d="M424.654,113.97c10.078,7.334,18.417,2.707,18.417-9.763V47.76c0-12.46-10.423-18.81-22.893-18.81H382.55
			c-12.469,0-22.576,7.382-22.576,18.81s8.176,25.704,18.254,33.029L424.654,113.97z"/>
	</g>
</g>
<g>
</g>
<g>
</g>
<g>
</g>
<g>
</g>
<g>
</g>
<g>
</g>
<g>
</g>
<g>
</g>
<g>
</g>
<g>
</g>
<g>
</g>
<g>
</g>
<g>
</g>
<g>
</g>
<g>
</g>
</svg>
