<?xml version="1.0" encoding="iso-8859-1"?>
<!-- Generator: Adobe Illustrator 18.0.0, SVG Export Plug-In . SVG Version: 6.00 Build 0)  -->
<!DOCTYPE svg PUBLIC "-//W3C//DTD SVG 1.1//EN" "http://www.w3.org/Graphics/SVG/1.1/DTD/svg11.dtd">
<svg version="1.1" id="Capa_1" xmlns="http://www.w3.org/2000/svg" xmlns:xlink="http://www.w3.org/1999/xlink" x="0px" y="0px"
	 viewBox="0 0 297 297" style="enable-background:new 0 0 297 297;" xml:space="preserve">
<g>
	<path d="M294.046,179.17l-39.222-39.222c-7.782-7.782-21.949-13.649-32.953-13.649H119.01c-13.901,0-25.211,11.309-25.211,25.211
		v3.025c0,13.901,11.31,25.211,25.211,25.211h27.084l-5.367,5.367c-3.665,3.665-11.979,6.439-17.113,5.704l-86.524-12.36
		c-11.385-1.627-25.075,2.258-31.851,9.032c-4.209,4.209-6.008,9.816-4.936,15.383c1.259,6.534,6.243,12.109,13.678,15.296
		l88.666,37.999c9.708,4.161,24.754,5.365,34.997,2.805l37.208-9.302c8.703-2.177,21.945-6.732,30.146-10.373l9.827-4.363
		c3.631-1.612,9.83-0.317,12.513,2.611l35.502,38.762c1.988,2.173,4.71,3.274,7.439,3.274c2.433,0,4.873-0.876,6.808-2.647
		c4.107-3.762,4.388-10.142,0.626-14.248l-35.501-38.763c-8.475-9.253-24.1-12.513-35.57-7.423l-9.827,4.363
		c-7.061,3.135-19.359,7.366-26.854,9.24l-37.208,9.303c-5.955,1.488-16.516,0.641-22.159-1.777l-87.938-37.687
		c3.089-1.217,7.627-2.085,11.583-1.52l86.524,12.36c11.389,1.632,26.099-3.279,34.228-11.408l11.886-11.887
		c8.282-8.282,6.463-15.727,5.297-18.544c-1.167-2.816-5.145-9.367-16.858-9.367H119.01c-2.732,0-5.042-2.31-5.042-5.042v-3.025
		c0-2.733,2.31-5.042,5.042-5.042h102.86c5.628,0,14.712,3.763,18.691,7.742l39.222,39.222c3.939,3.938,10.323,3.938,14.262,0
		C297.984,189.493,297.984,183.108,294.046,179.17z"/>
	<path d="M60.899,122.235c9.787,0,19.037-3.861,26.048-10.871l33.515-33.515c14.154-14.154,14.555-36.787,0.891-50.449
		c-6.435-6.436-15.101-9.981-24.402-9.981c-9.785,0-19.036,3.861-26.047,10.871L37.387,61.804
		c-14.153,14.155-14.553,36.787-0.891,50.45C42.931,118.691,51.597,122.235,60.899,122.235z M96.95,37.587
		c3.914,0,7.516,1.446,10.141,4.073c5.8,5.8,5.4,15.636-0.891,21.927l-9.627,9.626L75.539,52.178l9.626-9.626
		C88.319,39.398,92.615,37.587,96.95,37.587z M51.649,76.067l9.627-9.627l21.035,21.035l-9.626,9.627
		c-3.154,3.154-7.45,4.964-11.786,4.964c-3.914,0-7.516-1.446-10.141-4.072C44.959,92.194,45.359,82.358,51.649,76.067z"/>
</g>
<g>
</g>
<g>
</g>
<g>
</g>
<g>
</g>
<g>
</g>
<g>
</g>
<g>
</g>
<g>
</g>
<g>
</g>
<g>
</g>
<g>
</g>
<g>
</g>
<g>
</g>
<g>
</g>
<g>
</g>
</svg>
