<?xml version="1.0" encoding="UTF-8" standalone="no"?>
<!-- Generator: Adobe Illustrator 19.0.0, SVG Export Plug-In . SVG Version: 6.00 Build 0)  -->

<svg
   xmlns:dc="http://purl.org/dc/elements/1.1/"
   xmlns:cc="http://creativecommons.org/ns#"
   xmlns:rdf="http://www.w3.org/1999/02/22-rdf-syntax-ns#"
   xmlns:svg="http://www.w3.org/2000/svg"
   xmlns="http://www.w3.org/2000/svg"
   xmlns:sodipodi="http://sodipodi.sourceforge.net/DTD/sodipodi-0.dtd"
   xmlns:inkscape="http://www.inkscape.org/namespaces/inkscape"
   version="1.1"
   id="Layer_1"
   x="0px"
   y="0px"
   viewBox="0 0 512 512"
   style="enable-background:new 0 0 512 512;"
   xml:space="preserve"
   inkscape:version="0.91 r13725"
   sodipodi:docname="eye_clinic.svg"><metadata
     id="metadata53"><rdf:RDF><cc:Work
         rdf:about=""><dc:format>image/svg+xml</dc:format><dc:type
           rdf:resource="http://purl.org/dc/dcmitype/StillImage" /></cc:Work></rdf:RDF></metadata><defs
     id="defs51" /><sodipodi:namedview
     pagecolor="#ffffff"
     bordercolor="#666666"
     borderopacity="1"
     objecttolerance="10"
     gridtolerance="10"
     guidetolerance="10"
     inkscape:pageopacity="0"
     inkscape:pageshadow="2"
     inkscape:window-width="1321"
     inkscape:window-height="705"
     id="namedview49"
     showgrid="false"
     inkscape:zoom="0.4609375"
     inkscape:cx="256"
     inkscape:cy="251.66102"
     inkscape:window-x="45"
     inkscape:window-y="30"
     inkscape:window-maximized="1"
     inkscape:current-layer="Layer_1" /><g
     id="g3381"
     style="fill:#f9f9f9"><path
       id="path3"
       d="M343.158,512H168.842c-36.459,0-66.119-29.66-66.119-66.121V221.248  c0-36.459,29.662-66.119,66.119-66.119h174.315c36.459,0,66.119,29.66,66.119,66.119v30.527c0,8.211-6.659,14.87-14.87,14.87  s-14.87-6.659-14.87-14.87v-30.527c0-20.059-16.321-36.38-36.38-36.38H168.842c-20.061,0-36.38,16.321-36.38,36.38v224.631  c0,20.061,16.321,36.382,36.38,36.382h174.315c20.059,0,36.38-16.321,36.38-36.382V318.757c0-8.211,6.659-14.87,14.87-14.87  s14.87,6.659,14.87,14.87v127.122C409.275,482.34,379.615,512,343.158,512z"
       style="fill:#f9f9f9" /><g
       id="g7"
       style="fill:#f9f9f9"><path
         id="path9"
         d="M255.999,432.092c-54.328,0-98.526-44.2-98.526-98.528c0-54.329,44.199-98.529,98.526-98.529   c54.329,0,98.528,44.2,98.528,98.529C354.527,387.892,310.327,432.092,255.999,432.092z M255.999,264.775   c-37.929,0-68.787,30.859-68.787,68.79c0,37.929,30.857,68.788,68.787,68.788s68.788-30.859,68.788-68.788   C324.788,295.634,293.929,264.775,255.999,264.775z"
         style="fill:#f9f9f9" /><path
         id="path11"
         d="M255.999,378.402c-8.212,0-14.87-6.659-14.87-14.87v-59.939c0-8.211,6.657-14.87,14.87-14.87   c8.211,0,14.87,6.659,14.87,14.87v59.941C270.869,371.745,264.212,378.402,255.999,378.402z"
         style="fill:#f9f9f9" /><path
         id="path13"
         d="M285.97,348.433h-59.939c-8.212,0-14.87-6.659-14.87-14.87s6.657-14.87,14.87-14.87h59.939   c8.211,0,14.87,6.659,14.87,14.87C300.84,341.774,294.181,348.433,285.97,348.433z"
         style="fill:#f9f9f9" /></g><path
       id="path17"
       d="M349.22,184.501H162.78c-8.212,0-14.87-6.659-14.87-14.87v-52.93c0-8.975,3.292-17.607,9.271-24.301  c0.961-1.077,2.071-2.006,3.3-2.761l26.914-16.559l5.14-41.116C194.812,13.741,210.379,0,228.743,0h54.514  c18.365,0,33.931,13.741,36.209,31.964l5.14,41.116l26.916,16.559c1.227,0.757,2.339,1.686,3.3,2.761  c5.979,6.694,9.27,15.325,9.27,24.301v52.93C364.09,177.844,357.431,184.501,349.22,184.501z M177.65,154.762h156.7v-38.06  c0-1.13-0.281-2.229-0.81-3.207l-30.596-18.822c-3.842-2.364-6.403-6.345-6.963-10.821l-6.027-48.198  c-0.421-3.372-3.301-5.914-6.699-5.914h-54.514c-3.398,0-6.276,2.541-6.697,5.914l-6.025,48.198  c-0.559,4.477-3.121,8.458-6.963,10.821l-30.597,18.823c-0.528,0.977-0.81,2.076-0.81,3.206v38.06H177.65z"
       style="fill:#f9f9f9" /><g
       id="g19"
       style="fill:#f9f9f9" /><g
       id="g21"
       style="fill:#f9f9f9" /><g
       id="g23"
       style="fill:#f9f9f9" /><g
       id="g25"
       style="fill:#f9f9f9" /><g
       id="g27"
       style="fill:#f9f9f9" /><g
       id="g29"
       style="fill:#f9f9f9" /><g
       id="g31"
       style="fill:#f9f9f9" /><g
       id="g33"
       style="fill:#f9f9f9" /><g
       id="g35"
       style="fill:#f9f9f9" /><g
       id="g37"
       style="fill:#f9f9f9" /><g
       id="g39"
       style="fill:#f9f9f9" /><g
       id="g41"
       style="fill:#f9f9f9" /><g
       id="g43"
       style="fill:#f9f9f9" /><g
       id="g45"
       style="fill:#f9f9f9" /><g
       id="g47"
       style="fill:#f9f9f9" /></g></svg>