<?xml version="1.0" encoding="UTF-8" standalone="no"?>
<svg
   xmlns:dc="http://purl.org/dc/elements/1.1/"
   xmlns:cc="http://creativecommons.org/ns#"
   xmlns:rdf="http://www.w3.org/1999/02/22-rdf-syntax-ns#"
   xmlns:svg="http://www.w3.org/2000/svg"
   xmlns="http://www.w3.org/2000/svg"
   height="512"
   width="512"
   xml:space="preserve"
   viewBox="0 0 512 512"
   version="1.1"
   id="Layer_1_1_"><metadata
     id="metadata9"><rdf:RDF><cc:Work
         rdf:about=""><dc:format>image/svg+xml</dc:format><dc:type
           rdf:resource="http://purl.org/dc/dcmitype/StillImage" /><dc:title></dc:title></cc:Work></rdf:RDF></metadata><defs
     id="defs7" /><path
     id="path3"
     d="m 0,382.76667 c 0,71.294 57.803328,129.09733 129.09733,129.09733 71.294,0 129.09732,-57.80333 129.09732,-129.09733 0,-17.87998 -3.64699,-34.92082 -10.23096,-50.4125 L 512,68.317858 443.54614,-0.136 372.54261,70.86753 304.63742,2.9623359 281.81947,25.780288 349.72466,93.685483 324.13111,119.27903 256.22592,51.373834 233.40797,74.191786 301.31316,142.09698 179.50983,263.90031 C 164.01815,257.31634 146.97731,253.66935 129.09733,253.66935 57.803328,253.66935 0,311.47267 0,382.76667 Z m 96.822995,0 c 17.815435,0 32.274335,14.4589 32.274335,32.27433 0,17.81544 -14.4589,32.27434 -32.274335,32.27434 -17.815431,0 -32.274331,-14.4589 -32.274331,-32.27434 0,-17.81543 14.4589,-32.27433 32.274331,-32.27433 z" /></svg>