<?xml version="1.0" encoding="iso-8859-1"?>
<!-- Generator: Adobe Illustrator 19.0.0, SVG Export Plug-In . SVG Version: 6.00 Build 0)  -->
<svg version="1.1" id="Layer_1" xmlns="http://www.w3.org/2000/svg" xmlns:xlink="http://www.w3.org/1999/xlink" x="0px" y="0px"
	 viewBox="0 0 512 512" style="enable-background:new 0 0 512 512;" xml:space="preserve">
<g>
	<g>
		<g>
			<path d="M106.667,106.667c29.406,0,53.333-23.927,53.333-53.333S136.073,0,106.667,0S53.333,23.927,53.333,53.333
				S77.26,106.667,106.667,106.667z"/>
			<path d="M493.798,327.81C504.869,318.03,512,303.896,512,288c0-29.406-23.927-53.333-53.333-53.333
				c-12.052,0-23.059,4.171-32,10.939v-26.939C426.667,203.958,414.708,192,400,192c-14.708,0-26.667,11.958-26.667,26.667V256H320
				v-32c0-17.646-14.354-32-32-32h-48c-14.708,0-26.667,11.958-26.667,26.667c0,14.708,11.958,26.667,26.667,26.667h11.583
				l-0.542,0.542c-10.563,10.563-16.375,24.604-16.375,39.563c0,13.501,5.006,25.733,13.004,35.405
				c-19.551,3.885-34.337,21.146-34.337,41.824v10.667c0,5.896,4.771,10.667,10.667,10.667h277.333
				c5.896,0,10.667-4.771,10.667-10.667v-10.667C512,348.25,504.775,335.536,493.798,327.81z M298.667,256h-27.583l13.792-13.792
				c3.052-3.052,3.969-7.635,2.313-11.625c-1.646-3.99-5.542-6.583-9.854-6.583H240c-2.938,0-5.333-2.396-5.333-5.333
				s2.396-5.333,5.333-5.333h48c5.885,0,10.667,4.781,10.667,10.667V256z M405.333,288c0,17.646-14.354,32-32,32H320v-42.667h64
				c5.896,0,10.667-4.771,10.667-10.667v-48c0-5.875,10.667-5.875,10.667,0V288z M458.667,320c-17.646,0-32-14.354-32-32
				s14.354-32,32-32s32,14.354,32,32S476.313,320,458.667,320z"/>
			<path d="M213.333,288c0-1.292,0-2.073-21.656-121.073C189.729,144.74,171.521,128,149.333,128H64
				c-22.188,0-40.396,16.74-42.219,37.958C0,285.927,0,286.708,0,288c0,16.865,13.115,30.719,29.677,31.917l-18.802,93.99
				c-0.625,3.135,0.188,6.385,2.208,8.854c2.031,2.469,5.052,3.906,8.25,3.906h40.75l12.729,76.417
				c0.854,5.146,5.302,8.917,10.521,8.917H128c5.219,0,9.667-3.771,10.521-8.917l12.729-76.417H192c3.198,0,6.219-1.438,8.25-3.906
				c2.021-2.469,2.833-5.719,2.208-8.854l-18.802-93.99C200.219,318.719,213.333,304.865,213.333,288z"/>
		</g>
	</g>
</g>
<g>
</g>
<g>
</g>
<g>
</g>
<g>
</g>
<g>
</g>
<g>
</g>
<g>
</g>
<g>
</g>
<g>
</g>
<g>
</g>
<g>
</g>
<g>
</g>
<g>
</g>
<g>
</g>
<g>
</g>
</svg>
