<?xml version="1.0" encoding="iso-8859-1"?>
<!-- Generator: Adobe Illustrator 19.0.0, SVG Export Plug-In . SVG Version: 6.00 Build 0)  -->
<svg version="1.1" id="Layer_1" xmlns="http://www.w3.org/2000/svg" xmlns:xlink="http://www.w3.org/1999/xlink" x="0px" y="0px"
	 viewBox="0 0 512 512" style="enable-background:new 0 0 512 512;" xml:space="preserve">
<g>
	<g>
		<g>
			<path d="M437.779,30.636h-67.088V12.829C370.692,5.744,364.948,0,357.863,0H154.137c-7.085,0-12.829,5.744-12.829,12.829v17.807
				H74.221c-7.085,0-12.829,5.744-12.829,12.829c0,18.534,0,439.401,0,455.706c0,7.085,5.744,12.829,12.829,12.829h363.559
				c7.085,0,12.829-5.744,12.829-12.829c0-16.337,0-437.106,0-455.706C450.609,36.38,444.865,30.636,437.779,30.636z
				 M166.966,25.658h178.068c0,12.687,0,86.256,0,96.885H166.966C166.966,112.265,166.966,38.422,166.966,25.658z M87.05,56.294
				h54.258v35.614H87.05V56.294z M424.95,486.342H87.05V117.566h54.258v17.807c0,7.085,5.744,12.829,12.829,12.829h203.726
				c7.085,0,12.829-5.744,12.829-12.829v-17.807h54.258V486.342z M424.95,91.908h-54.258V56.294h54.258V91.908z"/>
			<path d="M208.401,190.144h-59.33c-7.085,0-12.829,5.744-12.829,12.829v59.33c0,7.085,5.744,12.829,12.829,12.829h59.33
				c7.085,0,12.829-5.744,12.829-12.829v-59.33C221.23,195.888,215.486,190.144,208.401,190.144z M195.572,249.474H161.9v-33.672
				h33.672V249.474z"/>
			<path d="M263.338,249.474c-7.085,0-12.829,5.744-12.829,12.829s5.744,12.829,12.829,12.829h99.591
				c7.085,0,12.829-5.744,12.829-12.829s-5.744-12.829-12.829-12.829H263.338z"/>
			<path d="M208.401,328.777h-59.33c-7.085,0-12.829,5.744-12.829,12.829v59.33c0,7.085,5.744,12.829,12.829,12.829h59.33
				c7.085,0,12.829-5.744,12.829-12.829v-59.33C221.23,334.519,215.486,328.777,208.401,328.777z M195.572,388.105H161.9v-33.672
				h33.672V388.105z"/>
			<path d="M362.93,388.105h-99.591c-7.085,0-12.829,5.744-12.829,12.829s5.744,12.829,12.829,12.829h99.591
				c7.085,0,12.829-5.744,12.829-12.829S370.015,388.105,362.93,388.105z"/>
			<path d="M274.715,59.287h-5.886v-5.886c0-7.085-5.744-12.829-12.829-12.829c-7.085,0-12.829,5.744-12.829,12.829v5.886h-5.886
				c-7.085,0-12.829,5.744-12.829,12.829s5.744,12.829,12.829,12.829h5.886v5.886c0,7.085,5.744,12.829,12.829,12.829
				c7.085,0,12.829-5.744,12.829-12.829v-5.886h5.886c7.085,0,12.829-5.744,12.829-12.829S281.8,59.287,274.715,59.287z"/>
		</g>
	</g>
</g>
<g>
</g>
<g>
</g>
<g>
</g>
<g>
</g>
<g>
</g>
<g>
</g>
<g>
</g>
<g>
</g>
<g>
</g>
<g>
</g>
<g>
</g>
<g>
</g>
<g>
</g>
<g>
</g>
<g>
</g>
</svg>
