<?xml version="1.0" encoding="UTF-8" standalone="no"?>
<!-- Generator: Adobe Illustrator 18.1.1, SVG Export Plug-In . SVG Version: 6.00 Build 0)  -->

<svg
   xmlns:dc="http://purl.org/dc/elements/1.1/"
   xmlns:cc="http://creativecommons.org/ns#"
   xmlns:rdf="http://www.w3.org/1999/02/22-rdf-syntax-ns#"
   xmlns:svg="http://www.w3.org/2000/svg"
   xmlns="http://www.w3.org/2000/svg"
   xmlns:sodipodi="http://sodipodi.sourceforge.net/DTD/sodipodi-0.dtd"
   xmlns:inkscape="http://www.inkscape.org/namespaces/inkscape"
   version="1.1"
   id="Capa_1"
   x="0px"
   y="0px"
   viewBox="0 0 480.545 480.545"
   style="enable-background:new 0 0 480.545 480.545;"
   xml:space="preserve"
   inkscape:version="0.91 r13725"
   sodipodi:docname="normalRegistration.svg"><metadata
     id="metadata49"><rdf:RDF><cc:Work
         rdf:about=""><dc:format>image/svg+xml</dc:format><dc:type
           rdf:resource="http://purl.org/dc/dcmitype/StillImage" /></cc:Work></rdf:RDF></metadata><defs
     id="defs47" /><sodipodi:namedview
     pagecolor="#ffffff"
     bordercolor="#666666"
     borderopacity="1"
     objecttolerance="10"
     gridtolerance="10"
     guidetolerance="10"
     inkscape:pageopacity="0"
     inkscape:pageshadow="2"
     inkscape:window-width="1321"
     inkscape:window-height="705"
     id="namedview45"
     showgrid="false"
     inkscape:zoom="0.49110904"
     inkscape:cx="240.27251"
     inkscape:cy="240.27251"
     inkscape:window-x="45"
     inkscape:window-y="30"
     inkscape:window-maximized="1"
     inkscape:current-layer="Capa_1" /><g
     id="g3"
     style="fill:#f9f9f9"><g
       id="g5"
       style="fill:#f9f9f9"><g
         id="g7"
         style="fill:#f9f9f9"><path
           style="fill:#f9f9f9"
           d="M243.236,163.644c45.105,0,81.773-36.692,81.773-81.773C325.009,36.741,288.341,0,243.236,0     c-45.081,0-81.773,36.741-81.773,81.871C161.462,126.96,198.155,163.644,243.236,163.644z M243.236,11.209     c38.903,0,70.564,31.693,70.564,70.662c0,38.895-31.661,70.548-70.564,70.548c-38.92,0-70.572-31.653-70.572-70.548     C172.672,42.903,204.316,11.209,243.236,11.209z"
           id="path9" /></g><g
         id="g11"
         style="fill:#f9f9f9"><path
           style="fill:#f9f9f9"
           d="M93.857,406.664l-4.812,0.024c-6.812,0-12.168-1.967-15.932-5.828     c-6.901-7.08-6.812-18.46-6.804-18.81l0.252-126.456c0.179-1.756,3.674-29.442,30.848-48.373L93.857,406.664z M105.066,406.234     l3.682-205.206c7.812-2.691,28.735-8.925,58.851-11.112l44.171,165.758c8.519,19.549,15.144,44.341,11.437,50.023     c-0.187,0.26-0.35,0.528-1.406,0.528H105.066V406.234z M414.229,454.005c0,14.64-11.908,26.54-26.515,26.54     c-14.64,0-26.548-11.9-26.548-26.824l-0.057-5.592V248.677h-12.811l0.098,227.803l-200.768-0.146l0.033-58.908h74.133h23.508     c19.183,0,34.798-15.623,34.798-34.815s-15.615-34.79-34.798-34.79h-24.093l-42.082-158.19h136.828     c3.829-0.024,91.788-0.26,98.283,76.709v187.664H414.229z M225.239,359.031h20.061c13.014,0,23.589,10.583,23.589,23.581     c0,13.038-10.583,23.613-23.589,23.613l-10.616,0.024C237.481,393.195,230.198,371.517,225.239,359.031z"
           id="path13" /></g></g></g><g
     id="g15" /><g
     id="g17" /><g
     id="g19" /><g
     id="g21" /><g
     id="g23" /><g
     id="g25" /><g
     id="g27" /><g
     id="g29" /><g
     id="g31" /><g
     id="g33" /><g
     id="g35" /><g
     id="g37" /><g
     id="g39" /><g
     id="g41" /><g
     id="g43" /></svg>