<?xml version="1.0" encoding="UTF-8" standalone="no"?>
<!-- Generator: Adobe Illustrator 19.1.0, SVG Export Plug-In . SVG Version: 6.00 Build 0)  -->

<svg
   xmlns:dc="http://purl.org/dc/elements/1.1/"
   xmlns:cc="http://creativecommons.org/ns#"
   xmlns:rdf="http://www.w3.org/1999/02/22-rdf-syntax-ns#"
   xmlns:svg="http://www.w3.org/2000/svg"
   xmlns="http://www.w3.org/2000/svg"
   xmlns:sodipodi="http://sodipodi.sourceforge.net/DTD/sodipodi-0.dtd"
   xmlns:inkscape="http://www.inkscape.org/namespaces/inkscape"
   version="1.1"
   id="Capa_1"
   x="0px"
   y="0px"
   viewBox="0 0 489.9 489.9"
   style="enable-background:new 0 0 489.9 489.9;"
   xml:space="preserve"
   inkscape:version="0.91 r13725"
   sodipodi:docname="payments.svg"><metadata
     id="metadata55"><rdf:RDF><cc:Work
         rdf:about=""><dc:format>image/svg+xml</dc:format><dc:type
           rdf:resource="http://purl.org/dc/dcmitype/StillImage" /></cc:Work></rdf:RDF></metadata><defs
     id="defs53" /><sodipodi:namedview
     pagecolor="#ffffff"
     bordercolor="#666666"
     borderopacity="1"
     objecttolerance="10"
     gridtolerance="10"
     guidetolerance="10"
     inkscape:pageopacity="0"
     inkscape:pageshadow="2"
     inkscape:window-width="1321"
     inkscape:window-height="705"
     id="namedview51"
     showgrid="false"
     inkscape:zoom="0.48173097"
     inkscape:cx="-377.80423"
     inkscape:cy="240.7983"
     inkscape:window-x="45"
     inkscape:window-y="30"
     inkscape:window-maximized="1"
     inkscape:current-layer="Capa_1" /><g
     id="g21" /><g
     id="g23" /><g
     id="g25" /><g
     id="g27" /><g
     id="g29" /><g
     id="g31" /><g
     id="g33" /><g
     id="g35" /><g
     id="g37" /><g
     id="g39" /><g
     id="g41" /><g
     id="g43" /><g
     id="g45" /><g
     id="g47" /><g
     id="g49" /><path
     style="fill:#000000"
     d=""
     id="path4810"
     inkscape:connector-curvature="0" /><g
     id="g4193"
     style="fill:#ffffff;fill-opacity:1"><g
       id="g3"
       style="fill:#ffffff;fill-opacity:1"><g
         id="g5"
         style="fill:#ffffff;fill-opacity:1"><g
           id="g7"
           style="fill:#ffffff;fill-opacity:1"><path
             id="path9"
             d="M386.458,272.6c-5.5-4.3-62.9-68-78.4-77V30.3c0-16.8-13.6-30.3-30.3-30.3h-156.1c-16.8,0-30.3,13.6-30.3,30.3v289.4     c0,16.8,13.6,30.3,30.3,30.3h50.1h17.9l-2.8-23.8c-0.9-0.8-1.5-1.3-2.4-2.1h-10h-20c1-4,1.3-8.4,0.5-12.9     c-2.2-12.5-12.1-22.6-24.6-24.9c-4.6-0.9-9.1-0.6-13.2,0.4V61.4c1.8,0.3,3.7,0.5,5.6,0.5c17,0,30.7-13.8,30.7-30.7     c0-1.8-0.2-3.6-0.5-5.4h93.2c-0.3,1.8-0.5,3.6-0.5,5.4c0,17,13.7,30.7,30.7,30.7c1.9,0,3.8-0.2,5.6-0.5v219.9l0,0v63.2     c-10.6-7.8-22.4-32.2-22.4-32.2s-5.8-64.9-38.7-64.9c-0.9,0-1.7,0-2.6,0.1c0,0-24.9,2.1-4.3,73.3l9.2,79.1     c0,0,10.3,42.9,38.7,72.6v8.8c0,4.7,3.8,8.6,8.6,8.6h92.5c4.4,0,8-3.3,8.5-7.6c3.3-30.8,16.1-145.3,23.6-162.7     c1.2-2.8,2.2-5.6,2.6-8.6C399.358,301.2,399.958,283.2,386.458,272.6z"
             style="fill:#ffffff;fill-opacity:1" /></g><g
           id="g11"
           style="fill:#ffffff;fill-opacity:1"><circle
             id="circle13"
             r="18.4"
             cy="80.3"
             cx="203.058"
             style="fill:#ffffff;fill-opacity:1" /></g><g
           id="g15"
           style="fill:#ffffff;fill-opacity:1"><g
             id="g17"
             style="fill:#ffffff;fill-opacity:1" /></g></g></g><g
       id="g4"
       transform="matrix(-4.898448e-4,-0.04187927,-0.04187927,4.898448e-4,276.46853,255.20758)"
       style="fill:#ffffff;stroke:none;fill-opacity:1"><path
         style="fill:#ffffff;fill-opacity:1"
         id="path6"
         d="m 2650,3548 c -42,-15 -98,-22 -250,-29 -107,-5 -211,-14 -231,-19 -48,-13 -124,-81 -171,-154 -43,-67 -46,-63 -19,23 23,73 13,70 -41,-13 -34,-50 -40,-56 -35,-31 3,17 9,38 13,49 6,16 4,17 -13,7 -21,-11 -83,-100 -83,-119 0,-6 -4,-13 -9,-16 -14,-9 7,72 27,102 l 17,26 -32,-24 c -86,-63 -110,-147 -73,-258 28,-85 34,-91 49,-50 30,77 28,76 42,41 8,-18 16,-33 19,-33 3,0 13,20 23,44 10,25 26,51 34,58 15,12 15,8 9,-39 -4,-29 -3,-53 2,-53 5,0 32,23 60,52 l 52,52 0,-37 0,-37 35,38 34,37 1,-42 c 0,-23 5,-54 10,-69 l 11,-27 35,54 c 50,76 108,133 189,186 39,26 75,50 80,55 15,13 -71,-2 -134,-24 -66,-22 -77,-23 -60,-2 22,27 88,55 173,74 l 81,18 -80,1 c -98,1 -183,-20 -241,-59 -25,-17 -44,-24 -44,-17 0,26 42,79 73,91 44,18 197,39 282,38 95,0 135,12 178,53 38,36 64,76 50,74 -4,0 -33,-10 -63,-21 z"
         inkscape:connector-curvature="0" /><path
         style="fill:#ffffff;fill-opacity:1"
         id="path8"
         d="m 1426,3008 c -104,-106 -254,-291 -341,-417 -27,-40 -59,-84 -71,-98 l -20,-26 7,59 c 10,77 9,422 -1,454 -5,19 -9,21 -13,10 -29,-68 -182,-542 -217,-670 l -13,-45 -26,85 c -35,109 -92,226 -102,208 -15,-27 -31,-253 -27,-378 2,-70 1,-127 -2,-125 -3,2 -35,47 -70,99 -35,53 -67,96 -71,96 -7,0 85,-404 130,-572 17,-61 29,-113 27,-115 -2,-2 -58,40 -125,93 -67,53 -124,95 -125,93 -2,-2 70,-145 160,-318 90,-173 162,-316 161,-318 -2,-1 -59,23 -127,53 -128,58 -310,127 -316,121 -2,-2 17,-23 43,-47 172,-156 362,-334 360,-337 -2,-2 -91,6 -198,17 -106,12 -204,20 -216,18 -14,-2 97,-63 317,-173 186,-93 337,-172 334,-176 -2,-3 -38,-12 -80,-19 -83,-13 -349,-78 -435,-106 -48,-16 -51,-18 -29,-25 32,-11 425,-72 605,-96 233,-29 686,-23 777,12 19,7 38,-35 38,-81 0,-82 48,-97 121,-39 l 44,35 20,-24 c 21,-24 56,-46 75,-46 8,0 9,14 5,44 -4,26 -3,46 3,50 6,3 30,-16 53,-44 23,-28 47,-49 52,-47 5,1 20,37 33,78 l 24,76 77,-14 c 98,-18 384,-20 518,-4 202,25 781,132 763,142 -24,13 -242,58 -388,79 -80,12 -152,24 -160,27 -8,3 93,59 230,127 372,186 437,221 414,224 -11,2 -107,-6 -214,-17 -107,-11 -195,-19 -197,-18 -1,2 90,88 202,192 113,103 203,190 201,192 -6,6 -190,-65 -320,-123 -65,-30 -121,-54 -123,-54 -4,0 109,222 263,516 35,67 64,124 64,127 0,3 -51,-35 -113,-84 -124,-100 -153,-119 -145,-98 25,66 169,679 159,679 -3,-1 -35,-44 -70,-96 -36,-52 -67,-97 -70,-99 -3,-2 -4,58 -2,133 3,133 -12,342 -28,369 -10,18 -83,-137 -107,-229 l -18,-67 -33,112 c -54,181 -171,539 -189,582 l -18,40 -7,-45 c -10,-61 -10,-328 0,-415 5,-38 7,-71 6,-73 -1,-2 -36,43 -76,100 -135,190 -242,322 -348,431 -58,59 -109,107 -114,107 -4,0 3,-21 16,-47 13,-27 66,-147 118,-268 103,-244 231,-503 300,-610 25,-38 75,-106 110,-150 35,-44 73,-98 83,-120 42,-87 27,-376 -29,-571 -95,-330 -337,-573 -700,-704 -49,-18 -102,-39 -118,-47 -22,-11 -34,-12 -62,-3 -29,10 -39,9 -64,-6 -29,-17 -32,-17 -66,-1 -40,19 -78,22 -105,7 -21,-11 -208,49 -325,105 -407,196 -616,544 -619,1030 -1,166 6,186 105,310 95,117 150,209 250,410 96,195 301,665 291,665 -4,0 -52,-46 -106,-102 z m -125,-338 c -36,-99 -107,-251 -153,-330 -39,-66 -151,-230 -154,-227 -10,9 66,205 121,313 54,107 213,359 221,351 2,-2 -14,-50 -35,-107 z m 1352,-45 c 79,-122 164,-289 206,-408 17,-49 31,-91 31,-93 0,-29 -125,157 -198,296 -50,94 -142,315 -142,340 0,17 24,-15 103,-135 z M 946,2328 c -9,-60 -26,-150 -38,-201 l -23,-92 -3,147 c -3,156 10,275 50,453 l 23,100 3,-150 c 2,-93 -3,-190 -12,-257 z m 2008,286 c 43,-196 62,-411 47,-529 l -7,-50 -22,95 c -35,152 -52,294 -52,454 0,82 2,147 5,144 3,-2 16,-54 29,-114 z m 231,-431 c -18,-151 -61,-330 -99,-420 -14,-32 -25,-53 -26,-48 -1,30 32,277 45,334 18,78 86,283 92,277 3,-2 -3,-67 -12,-143 z m -2457,31 c 17,-50 39,-133 51,-185 20,-92 45,-298 37,-306 -7,-7 -64,161 -84,248 -25,106 -55,357 -41,341 4,-4 20,-48 37,-98 z m 2588,-206 c -50,-131 -100,-247 -161,-369 -62,-126 -164,-294 -165,-272 0,22 111,287 168,402 54,107 168,301 177,301 2,0 -6,-28 -19,-62 z M 637,1932 c 30,-52 81,-149 113,-215 73,-153 156,-365 136,-345 -23,21 -117,182 -171,293 -56,115 -166,376 -165,394 1,11 31,-33 87,-127 z m 209,-633 c 82,-88 224,-292 211,-305 -9,-9 -164,115 -220,176 -80,86 -257,343 -257,373 0,10 188,-163 266,-244 z m 2443,219 c -71,-135 -206,-315 -299,-401 -64,-59 -161,-130 -168,-122 -5,4 116,191 139,215 8,8 34,39 59,69 40,49 265,261 276,261 3,0 -1,-10 -7,-22 z M 645,1107 c 112,-39 245,-96 315,-134 77,-43 202,-124 197,-129 -2,-2 -39,5 -83,17 -152,40 -293,106 -461,217 -123,80 -120,82 32,29 z m 2703,20 C 3223,1025 2896,870 2751,844 l -36,-6 41,30 c 65,48 192,118 284,158 75,33 317,123 330,123 3,0 -7,-10 -22,-22 z M 1038,795 c 148,-29 332,-80 432,-120 l 65,-26 -100,6 c -113,5 -273,32 -420,70 -111,28 -405,123 -418,135 -10,9 263,-31 441,-65 z m 2251,61 c -9,-8 -163,-60 -301,-101 -174,-52 -360,-90 -517,-104 -116,-11 -143,-9 -100,7 217,82 377,122 699,172 168,27 228,34 219,26 z M 1594,576 c 80,-18 156,-45 156,-56 0,-13 -24,-18 -152,-37 -103,-15 -190,-18 -523,-17 -220,1 -422,5 -450,11 l -50,9 130,32 c 142,34 276,58 400,72 116,13 406,4 489,-14 z m 1350,-5 c 136,-23 348,-72 341,-79 -11,-11 -361,-31 -560,-32 -271,0 -575,26 -591,51 -11,18 94,54 221,75 116,19 435,11 589,-15 z m -855,-47 c 3,-17 0,-16 -23,5 -14,14 -26,29 -26,34 0,17 45,-20 49,-39 z m -159,-17 c 0,-8 -9,-22 -20,-32 -23,-21 -25,-16 -8,20 12,27 28,34 28,12 z m 50,-19 c -1,-19 -29,-53 -37,-45 -8,9 14,57 27,57 5,0 10,-6 10,-12 z m -127,-38 c 3,-12 0,-20 -7,-20 -6,0 -17,9 -24,20 -11,17 -10,20 7,20 10,0 21,-9 24,-20 z m 204,-14 c -7,-17 -47,-22 -47,-7 0,5 7,17 16,26 19,19 40,6 31,-19 z m -247,-56 c 32,-28 35,-29 52,-13 18,16 20,15 45,-11 22,-24 31,-27 61,-22 19,3 47,16 61,29 31,29 46,26 66,-13 29,-55 9,-68 -40,-25 -34,29 -55,19 -55,-26 0,-37 -9,-36 -60,6 -23,19 -51,35 -62,35 -18,0 -19,-4 -14,-34 5,-28 3,-37 -13,-45 -11,-6 -22,-11 -26,-11 -3,0 -19,30 -35,66 -45,99 -39,117 20,64 z"
         inkscape:connector-curvature="0" /><path
         style="fill:#ffffff;fill-opacity:1"
         id="path10"
         d="m 1786,2975 c -3,-9 1,-18 9,-21 13,-5 15,-36 15,-186 0,-184 8,-227 44,-241 19,-7 23,-36 36,-227 22,-343 60,-867 65,-897 8,-44 21,-42 28,5 3,20 18,278 33,572 l 28,535 25,22 26,21 3,196 c 2,111 8,196 13,196 5,0 9,9 9,20 0,19 -7,20 -164,20 -138,0 -165,-2 -170,-15 z"
         inkscape:connector-curvature="0" /><path
         style="fill:#ffffff;fill-opacity:1"
         id="path12"
         d="m 1161,1818 c -1,-11 -12,-19 -33,-23 -18,-3 -54,-9 -80,-14 -36,-6 -50,-5 -61,6 -12,12 -13,8 -6,-34 4,-26 8,-56 8,-65 1,-9 12,-29 25,-45 21,-24 26,-26 50,-15 14,6 26,18 26,27 0,8 5,15 10,15 6,0 10,-4 10,-10 0,-14 43,-13 58,2 7,7 12,30 11,53 0,43 -16,132 -18,103 z m -3,-95 c -2,-12 -12,-18 -28,-18 -16,0 -26,6 -28,18 -3,13 3,17 28,17 25,0 31,-4 28,-17 z m -78,-6 c 0,-18 -21,-37 -42,-37 -22,0 -43,36 -25,43 25,11 67,7 67,-6 z"
         inkscape:connector-curvature="0" /><path
         style="fill:#ffffff;fill-opacity:1"
         id="path14"
         d="m 2880,1815 c -14,-7 -58,-23 -97,-36 -40,-13 -73,-26 -73,-29 0,-3 38,-28 85,-55 47,-27 85,-54 86,-60 1,-13 17,26 18,44 1,10 -2,11 -13,2 -7,-6 -21,-8 -30,-5 -28,11 -5,83 27,84 4,0 7,-5 7,-12 0,-9 3,-9 11,-1 6,6 9,26 7,46 -3,34 -4,35 -28,22 z m -50,-95 c 0,-23 -4,-24 -32,-9 -17,9 -18,13 -7,20 23,15 39,10 39,-11 z"
         inkscape:connector-curvature="0" /><path
         style="fill:#ffffff;fill-opacity:1"
         id="path16"
         d="m 2687,1640 c -3,-8 -14,-43 -24,-78 -18,-58 -19,-62 -2,-57 16,5 89,-18 89,-28 0,-3 -31,-12 -69,-22 -54,-13 -71,-22 -80,-41 -15,-35 -14,-49 3,-35 18,15 156,-45 156,-67 0,-21 16,-4 25,28 7,21 6,23 -7,13 -11,-10 -26,-7 -72,15 l -58,27 89,24 c 48,13 91,27 95,30 5,4 -30,24 -77,45 -47,21 -85,41 -85,45 0,3 4,13 9,20 8,13 20,13 85,-3 43,-10 80,-24 85,-33 6,-12 10,-7 15,21 4,21 10,45 13,54 4,14 3,14 -5,3 -9,-13 -21,-13 -86,3 -46,11 -80,24 -85,34 -8,15 -10,15 -14,2 z"
         inkscape:connector-curvature="0" /><path
         style="fill:#ffffff;fill-opacity:1"
         id="path18"
         d="m 1013,1569 c 4,-13 7,-28 7,-33 0,-6 6,-1 14,9 18,25 43,13 51,-24 8,-37 -1,-54 -25,-48 -17,4 -17,2 -3,-40 14,-40 17,-43 26,-27 6,11 42,49 81,85 l 71,66 -95,8 c -52,4 -104,12 -114,17 -17,9 -18,7 -13,-13 z m 122,-39 c -10,-11 -21,-20 -25,-20 -4,0 -10,9 -13,20 -4,17 0,20 25,20 30,0 31,0 13,-20 z"
         inkscape:connector-curvature="0" /><path
         style="fill:#ffffff;fill-opacity:1"
         id="path20"
         d="m 1248,1453 c -6,-24 -125,-96 -144,-89 -18,7 -18,-5 1,-30 11,-14 14,-15 15,-4 0,14 97,77 105,68 2,-2 -11,-42 -30,-88 -19,-47 -35,-86 -35,-87 0,-10 27,2 88,37 74,43 92,48 92,26 0,-23 -109,-119 -127,-112 -11,5 -8,-3 9,-26 22,-29 59,-54 45,-31 -4,6 8,23 25,39 22,21 29,24 25,11 -4,-10 -7,-32 -7,-48 0,-20 -5,-29 -16,-29 -12,0 -7,-10 17,-39 19,-22 36,-40 39,-40 3,0 6,31 7,70 1,39 5,75 10,80 5,5 32,5 61,0 28,-4 52,-5 52,-1 0,3 -12,17 -27,31 -20,18 -25,20 -20,7 7,-20 -14,-23 -72,-12 l -32,7 22,23 c 12,13 29,24 38,24 11,0 8,7 -11,28 -14,15 -32,38 -41,52 -10,13 -17,19 -17,13 0,-11 -59,-53 -75,-53 -4,0 -5,6 -2,13 48,119 46,110 27,146 -15,30 -18,31 -22,14 z"
         inkscape:connector-curvature="0" /><path
         style="fill:#ffffff;fill-opacity:1"
         id="path22"
         d="m 2533,1303 c 2,-5 25,-43 51,-85 25,-43 46,-85 46,-93 0,-20 16,-11 31,17 10,18 9,20 -5,15 -27,-11 -36,23 -14,54 22,30 64,30 53,0 -3,-9 8,0 25,19 28,33 39,57 22,46 -4,-2 -50,4 -102,14 -109,22 -113,23 -107,13 z m 94,-84 c -11,-18 -13,-18 -24,-2 -19,25 -16,31 11,26 22,-5 23,-8 13,-24 z"
         inkscape:connector-curvature="0" /><path
         style="fill:#ffffff;fill-opacity:1"
         id="path24"
         d="m 2422,1181 c -55,-49 -61,-61 -37,-81 13,-11 15,-8 15,13 0,26 26,61 39,52 5,-2 14,-45 21,-95 7,-50 16,-92 19,-95 4,-2 35,22 70,54 l 64,57 -18,27 c -22,34 -26,34 -23,-3 2,-29 -36,-85 -52,-75 -4,2 -13,45 -20,95 -7,50 -16,92 -19,94 -3,2 -30,-17 -59,-43 z"
         inkscape:connector-curvature="0" /><path
         style="fill:#ffffff;fill-opacity:1"
         id="path26"
         d="m 2326,1105 c -15,-11 -16,-15 -5,-15 9,0 25,-18 38,-40 12,-22 21,-40 19,-40 -3,0 -33,11 -67,25 -59,23 -65,23 -93,9 -30,-16 -30,-16 -9,-27 32,-17 93,-131 78,-146 -17,-17 14,-14 37,4 16,12 17,15 4,15 -14,0 -82,99 -74,108 2,2 42,-12 90,-31 47,-19 87,-32 90,-30 2,2 -16,40 -41,84 -24,43 -41,83 -38,89 9,15 -7,12 -29,-5 z"
         inkscape:connector-curvature="0" /><path
         style="fill:#ffffff;fill-opacity:1"
         id="path28"
         d="m 1509,1071 c -74,-58 -51,-170 37,-187 98,-18 163,92 97,166 -37,42 -97,51 -134,21 z m 115,-55 c -1,-36 -42,-102 -71,-113 -8,-3 -23,3 -34,13 -16,17 -17,24 -8,58 6,22 24,52 39,68 23,23 33,26 52,19 18,-7 23,-16 22,-45 z"
         inkscape:connector-curvature="0" /><path
         style="fill:#ffffff;fill-opacity:1"
         id="path30"
         d="m 1696,1020 c 17,-17 -23,-170 -45,-171 -9,0 -3,-7 14,-14 49,-23 60,-19 61,20 1,50 18,64 37,30 l 14,-28 7,29 c 4,16 10,38 13,49 5,19 5,19 -14,3 -30,-27 -45,-23 -37,10 9,38 13,42 33,42 22,0 41,-19 41,-43 0,-25 17,-13 22,18 5,26 7,25 -72,45 -25,6 -54,14 -65,17 -15,4 -17,2 -9,-7 z"
         inkscape:connector-curvature="0" /><path
         style="fill:#ffffff;fill-opacity:1"
         id="path32"
         d="m 2106,983 c -3,-16 -10,-59 -15,-96 -5,-38 -16,-76 -23,-84 -12,-15 -10,-15 17,-9 35,9 45,17 28,23 -26,9 -14,41 17,48 39,9 66,-10 48,-33 -11,-13 -10,-14 7,-9 11,3 33,9 49,13 24,6 27,9 15,18 -8,6 -41,44 -72,84 -32,39 -60,72 -62,72 -2,0 -6,-12 -9,-27 z m 38,-94 c -12,-20 -34,-8 -34,18 0,25 1,26 20,8 11,-10 17,-22 14,-26 z"
         inkscape:connector-curvature="0" /><path
         style="fill:#ffffff;fill-opacity:1"
         id="path34"
         d="m 1887,983 c -4,-3 -7,-18 -7,-32 l 0,-25 16,22 c 8,12 22,22 30,22 19,0 21,-166 2,-173 -7,-3 12,-6 42,-6 34,0 50,3 42,8 -9,5 -16,38 -19,90 -6,77 -5,81 15,81 12,0 26,-9 32,-21 15,-27 23,-19 14,15 -6,25 -8,26 -83,26 -43,0 -81,-3 -84,-7 z"
         inkscape:connector-curvature="0" /></g></g></svg>