<?xml version="1.0" encoding="iso-8859-1"?>
<!-- Generator: Adobe Illustrator 19.0.0, SVG Export Plug-In . SVG Version: 6.00 Build 0)  -->
<svg version="1.1" id="Layer_1" xmlns="http://www.w3.org/2000/svg" xmlns:xlink="http://www.w3.org/1999/xlink" x="0px" y="0px"
	 viewBox="0 0 512 512" style="enable-background:new 0 0 512 512;" xml:space="preserve">
<g>
	<g>
		<path d="M113,0v392.667h32V512h222V392.667h32V0H113z M211.333,284.833v30h-30v-30H211.333z M181.333,252.833v-30h30v30H181.333z
			 M230.333,482h-44.666v-89.333h44.666V482z M271,314.833h-30v-30h30V314.833z M271,252.833h-30v-30h30V252.833z M330.667,314.833
			h-30v-30h30V314.833z M330.667,252.833h-30v-30h30V252.833z M351,175H161V59.667h190V175z"/>
	</g>
</g>
<g>
	<g>
		<rect x="191" y="89.67" width="130" height="55.33"/>
	</g>
</g>
<g>
</g>
<g>
</g>
<g>
</g>
<g>
</g>
<g>
</g>
<g>
</g>
<g>
</g>
<g>
</g>
<g>
</g>
<g>
</g>
<g>
</g>
<g>
</g>
<g>
</g>
<g>
</g>
<g>
</g>
</svg>
