<?xml version="1.0" encoding="UTF-8" standalone="no"?>
<!-- Generator: Adobe Illustrator 16.0.0, SVG Export Plug-In . SVG Version: 6.00 Build 0)  -->

<svg
   xmlns:dc="http://purl.org/dc/elements/1.1/"
   xmlns:cc="http://creativecommons.org/ns#"
   xmlns:rdf="http://www.w3.org/1999/02/22-rdf-syntax-ns#"
   xmlns:svg="http://www.w3.org/2000/svg"
   xmlns="http://www.w3.org/2000/svg"
   xmlns:sodipodi="http://sodipodi.sourceforge.net/DTD/sodipodi-0.dtd"
   xmlns:inkscape="http://www.inkscape.org/namespaces/inkscape"
   version="1.1"
   id="Capa_1"
   x="0px"
   y="0px"
   width="206.315px"
   height="206.315px"
   viewBox="0 0 206.315 206.315"
   style="enable-background:new 0 0 206.315 206.315;"
   xml:space="preserve"
   inkscape:version="0.91 r13725"
   sodipodi:docname="radiology.svg"><metadata
     id="metadata81"><rdf:RDF><cc:Work
         rdf:about=""><dc:format>image/svg+xml</dc:format><dc:type
           rdf:resource="http://purl.org/dc/dcmitype/StillImage" /></cc:Work></rdf:RDF></metadata><defs
     id="defs79" /><sodipodi:namedview
     pagecolor="#ffffff"
     bordercolor="#666666"
     borderopacity="1"
     objecttolerance="10"
     gridtolerance="10"
     guidetolerance="10"
     inkscape:pageopacity="0"
     inkscape:pageshadow="2"
     inkscape:window-width="1321"
     inkscape:window-height="705"
     id="namedview77"
     showgrid="false"
     inkscape:zoom="1.1438819"
     inkscape:cx="-27.100699"
     inkscape:cy="101.40907"
     inkscape:window-x="45"
     inkscape:window-y="30"
     inkscape:window-maximized="1"
     inkscape:current-layer="Capa_1" /><g
     id="g3"
     transform="matrix(1.6218743,0,0,1.6218743,-70.857028,4.5799961)"><g
       id="g5"><path
         d="m 86.452,87.188 c 0,0 -0.304,-7.039 -2.798,-5.782 0,0 -7.651,5.09 -9.085,6.193 l 1.315,2.95 c 0,0.006 9.926,-0.162 10.568,-3.361 z"
         id="path7"
         inkscape:connector-curvature="0" /><path
         d="m 79.413,95.642 1.928,2.801 c 8.741,-5.52 8.866,-5.882 7.395,-7.846 -2.415,-3.197 -9.323,5.045 -9.323,5.045 z"
         id="path9"
         inkscape:connector-curvature="0" /><path
         d="m 90.668,79.226 c -3.885,-2.67 -4.29,1.958 -4.29,1.958 -0.131,3.754 2.469,7.526 4.396,9.222 2.862,2.512 3.897,-1.665 3.897,-1.665 1.11,-5.67 -4.003,-9.515 -4.003,-9.515 z"
         id="path11"
         inkscape:connector-curvature="0" /><path
         d="m 86.604,76.27 c 0,0 4.394,1.671 3.578,-1.227 0,0 -1.178,-0.794 0.892,-7.411 0,0 2.911,-1.169 0.886,-2.971 0,0 -3.791,-2.253 -3.778,0.648 0,0 0.085,1.108 0.49,1.793 L 87.22,72.99 c -0.025,0 -2.543,1.994 -0.616,3.28 z"
         id="path13"
         inkscape:connector-curvature="0" /><path
         d="m 90.717,63.175 c 0,0 3.605,1.321 1.69,-1.839 l 1.428,-4.01 c 0,0 3.057,-0.338 1.023,-2.362 0,0 -3.273,-2.339 -3.461,-0.131 l 0.624,1.601 -1.352,3.748 c -10e-4,-0.006 -3.529,1.309 0.048,2.993 z"
         id="path15"
         inkscape:connector-curvature="0" /><path
         d="m 95.662,53.779 c 0.624,-0.417 0.844,-1.896 1.124,-2.771 1.011,-3.154 -1.072,-2.18 -1.391,-1.727 -3.268,4.641 -0.674,5.141 0.267,4.498 z"
         id="path17"
         inkscape:connector-curvature="0" /><path
         d="m 93.442,80.654 c 0,0 2.338,4.058 2.582,5.428 0,0 0.393,4.533 3.194,2.39 0,0 4.676,-2.469 8.378,-1.559 0,0 4.805,1.416 2.789,-2.152 -0.499,-0.883 -1.254,-1.964 -4.141,-0.073 -1.51,0.99 -7.066,2.363 -7.209,0.965 -0.097,-0.953 2.226,-2.53 8.726,-3.285 0.821,-0.101 3.465,1.12 2.149,-2.463 -0.372,-0.971 -0.408,-3.13 -4.165,0.076 -1.635,1.388 -5.907,3.167 -8.27,2.311 0,0 0.144,-2.083 7.614,-5.542 0,0 4.145,0.929 3.9,-1.653 -0.104,-1.035 -0.512,-3.861 -3.209,-2.612 -0.666,0.311 -1.595,1.202 -1.875,2.302 0,0 -8.598,6.223 -8.705,3.732 0,0 3.934,-5.861 7.855,-7.069 0,0 4.107,-0.344 2.033,-3.785 -0.148,-0.255 -1.391,-3.349 -4.046,1.391 -1.093,1.942 -4.42,5.249 -7.109,6.391 -1.206,0.531 -4.156,0.061 -0.491,5.207 z"
         id="path19"
         inkscape:connector-curvature="0" /><path
         d="m 117.473,83.969 c -1.303,0.731 -3.002,0.707 -3.435,0.387 l -0.858,-0.524 c -2.247,-1.72 -1.389,3.105 -1.389,3.105 0.956,0.816 1.389,-0.387 1.784,-0.618 l 1.998,0.019 c 2.222,0.152 2.095,0.444 2.722,0.743 1.656,0.815 1.212,-2.53 1.212,-2.53 -0.116,-2.141 -2.034,-0.582 -2.034,-0.582 z"
         id="path21"
         inkscape:connector-curvature="0" /><path
         d="m 124.744,83.445 c -0.896,0.7 -2.174,0.898 -2.527,0.688 l -0.694,-0.308 c -1.899,-1.023 -0.676,2.487 -0.676,2.487 0.835,0.493 0.999,-0.441 1.279,-0.661 l 1.479,-0.228 c 1.687,-0.134 1.626,0.091 2.149,0.252 1.327,0.399 0.603,-2.043 0.603,-2.043 -0.359,-1.596 -1.613,-0.187 -1.613,-0.187 z"
         id="path23"
         inkscape:connector-curvature="0" /><path
         d="m 127.326,74.099 c -0.664,-1.471 -1.699,0.231 -1.699,0.231 -0.779,0.91 -2.07,1.428 -2.479,1.327 l -0.791,-0.125 c -2.174,-0.524 -0.207,2.64 -0.207,2.64 0.949,0.298 0.932,-0.688 1.175,-0.974 l 1.522,-0.618 c 1.711,-0.572 1.687,-0.341 2.247,-0.305 1.474,0.065 0.232,-2.176 0.232,-2.176 z"
         id="path25"
         inkscape:connector-curvature="0" /><path
         d="m 124.452,64.229 c -1.06,1.153 -2.734,1.845 -3.246,1.76 l -0.974,-0.113 c -2.734,-0.499 -0.433,3.188 -0.433,3.188 1.188,0.292 1.242,-0.886 1.571,-1.254 l 1.942,-0.816 c 2.216,-0.801 2.18,-0.5 2.874,-0.505 1.875,-0.019 0.426,-2.634 0.426,-2.634 -0.766,-1.74 -2.16,0.374 -2.16,0.374 z"
         id="path27"
         inkscape:connector-curvature="0" /><path
         d="m 114.727,61.467 c 1.212,-0.049 0.943,-1.19 1.175,-1.647 l 1.675,-1.303 c 1.931,-1.364 1.942,-1.065 2.631,-1.251 1.79,-0.512 -0.293,-2.652 -0.293,-2.652 -1.199,-1.464 -1.979,0.929 -1.979,0.929 -0.706,1.397 -2.149,2.509 -2.661,2.545 l -0.975,0.179 c -2.752,0.262 0.427,3.2 0.427,3.2 z"
         id="path29"
         inkscape:connector-curvature="0" /><path
         d="m 122.009,55.648 c 1.139,0.427 0.907,-1.047 1.139,-1.482 l 1.432,-1.117 c 0.444,-0.329 0.804,-1.072 0.231,-1.541 -0.963,-0.792 -2.126,1.321 -2.637,1.379 l -0.804,-0.125 c -1.815,0.357 -0.116,2.613 0.639,2.886 z"
         id="path31"
         inkscape:connector-curvature="0" /><path
         d="m 129.627,63.687 1.619,-0.828 0.512,-1.474 c -0.816,-0.959 -2.326,0.91 -2.838,0.867 l -0.779,-0.255 c -1.851,0.024 -0.584,2.208 0.104,2.606 0.682,0.398 1.089,-0.53 1.382,-0.916 z"
         id="path33"
         inkscape:connector-curvature="0" /><path
         d="m 129.079,72.747 c -1.881,0.006 -0.603,2.183 0.098,2.594 0.683,0.399 1.09,-0.518 1.395,-0.91 l 1.607,-0.831 0.512,-1.471 c -0.816,-0.94 -2.326,0.91 -2.85,0.874 l -0.762,-0.256 z"
         id="path35"
         inkscape:connector-curvature="0" /><path
         d="m 129.127,82.249 -0.755,-0.256 c -1.875,0.013 -0.597,2.195 0.104,2.594 0.664,0.411 1.084,-0.511 1.395,-0.911 l 1.607,-0.828 0.512,-1.474 c -0.828,-0.945 -2.338,0.905 -2.863,0.875 z"
         id="path37"
         inkscape:connector-curvature="0" /><path
         d="m 112.437,72.954 2.07,-1.279 c 2.394,-1.303 2.418,-0.95 3.265,-1.075 2.191,-0.305 -0.384,-3.203 -0.384,-3.203 -1.432,-1.945 -2.101,0.679 -2.101,0.679 -0.652,1.178 -3.167,2.618 -3.807,2.594 l -1.162,0 c -3.386,-0.155 0.645,4.027 0.645,4.027 1.505,0.175 1.195,-1.247 1.474,-1.743 z"
         id="path39"
         inkscape:connector-curvature="0" /><path
         d="m 107.237,68.476 c 1.498,-0.037 1.012,-1.404 1.23,-1.934 l 1.875,-1.541 c 2.211,-1.614 2.277,-1.26 3.094,-1.483 2.149,-0.605 -0.792,-3.117 -0.792,-3.117 -1.687,-1.766 -1.979,0.947 -1.979,0.947 -0.487,1.249 -2.801,2.993 -3.44,3.05 l -1.142,0.149 c -3.382,0.293 1.154,3.929 1.154,3.929 z"
         id="path41"
         inkscape:connector-curvature="0" /><path
         d="m 118.983,75.365 c -1.229,-0.411 -1.723,1.279 -1.723,1.279 0,0 -3.685,2.088 -4.524,1.388 -0.822,-0.667 -1.583,-0.311 -1.729,0.231 -0.365,1.321 0.092,2.752 1.023,2.95 1.114,0.213 1.333,-0.916 1.729,-1.291 0.841,-0.755 3.307,-1.732 4.342,-1.278 0.914,0.398 1.766,0.393 2.034,-0.18 0.687,-1.385 -0.287,-2.813 -1.152,-3.099 z"
         id="path43"
         inkscape:connector-curvature="0" /><path
         d="m 152.51,41.777 -22.566,0 c -2.466,-7.24 -8.586,-7.41 -8.586,-7.41 -8.445,-1.258 -9.621,-3.988 -9.621,-3.988 -1.79,-2.576 -0.767,-7.515 -0.767,-7.515 1.485,-1.211 2.058,-4.414 2.058,-4.414 2.467,-1.897 2.339,-4.658 1.212,-4.628 -0.919,0.024 -0.712,-0.734 -0.712,-0.734 C 115.062,0.643 104.007,0 104.007,0 l -1.69,0 c 0,0 -11.07,0.643 -9.523,13.088 0,0 0.207,0.758 -0.709,0.734 -1.142,-0.03 -1.242,2.731 1.208,4.628 0,0 0.582,3.203 2.058,4.414 0,0 1.023,4.938 -0.767,7.515 0,0 -1.172,2.73 -9.633,3.988 0,0 -6.104,0.164 -8.573,7.41 l -22.579,0 c -1.72,0 -3.118,1.395 -3.118,3.118 l 0,58.199 c 0,1.712 1.397,3.118 3.118,3.118 l 8.074,0 c -1.69,2.722 -2.911,5.505 -1.489,5.949 0,0 1.684,0.164 3.909,-4.25 0,0 -0.058,1.698 -1.839,6.625 -0.35,0.925 -1.827,5.602 0.584,3.915 0,0 1.111,-0.768 2.57,-5.571 0,0 -0.779,8.086 0.076,8.5 1.132,0.548 1.75,-1.047 2.262,-8.142 0,0 0.524,-2.283 0.768,6.449 0.012,0.45 0.673,2.697 1.607,0.779 0.767,-1.607 0.423,-5.864 0.423,-7.295 0,0 0.992,5.529 1.927,5.529 0,0 1.099,1.284 0.648,-5.578 -0.073,-1.12 0.313,-3.422 0.362,-4.092 l 0.112,-2.631 -0.024,-0.219 7.925,0 c -0.183,1.937 -0.256,3.848 -0.04,5.65 0.868,7.088 2.527,22.244 4.229,28.217 0.88,3.094 0.356,10.9 1.072,12.849 0.319,0.841 0.155,1.62 -0.536,3.544 -2.387,6.71 -2.083,11.436 3.921,29.24 0,0 1.842,3.945 0.911,11.039 0,0 -3.827,7.886 -1.376,8.044 0,0 0.198,0.524 1.023,0.11 0,0 1.328,1.369 2.755,0.633 0,0 1.328,1.054 2.469,0.122 0,0 0.917,1.047 2.244,0.194 0,0 1.741,1.17 2.761,-0.104 0,0 1.842,0.408 -1.434,-7.885 0,0 -1.245,-8.793 -1.939,-10.517 -1.315,-3.282 -0.387,-12.251 -0.109,-14.182 0.459,-3.209 0.216,-8.695 -0.612,-12.933 -0.605,-3.033 1.035,-8.77 1.632,-12.301 1.255,-7.429 3.693,-26.378 3.389,-29.952 l 1.008,0.347 c 0.73,0 1.185,-0.347 1.185,-0.347 -0.305,3.574 2.128,22.523 3.373,29.952 0.604,3.52 2.241,9.256 1.65,12.301 -0.84,4.25 -1.084,9.736 -0.627,12.933 0.298,1.942 1.218,10.899 -0.104,14.182 -0.688,1.711 -1.942,10.517 -1.942,10.517 -3.273,8.293 -1.435,7.885 -1.435,7.885 1.035,1.248 2.78,0.104 2.78,0.104 1.327,0.853 2.229,-0.194 2.229,-0.194 1.145,0.932 2.472,-0.122 2.472,-0.122 1.425,0.736 2.753,-0.633 2.753,-0.633 0.84,0.414 1.022,-0.11 1.022,-0.11 2.473,-0.158 -1.376,-8.044 -1.376,-8.044 -0.919,-7.094 0.913,-11.039 0.913,-11.039 6.004,-17.805 6.309,-22.53 3.909,-29.24 -0.669,-1.937 -0.84,-2.703 -0.535,-3.544 0.719,-1.942 0.194,-9.743 1.071,-12.849 1.693,-5.973 3.361,-21.141 4.226,-28.217 0.22,-1.803 0.146,-3.727 -0.023,-5.65 l 7.928,0 -0.013,0.219 0.11,2.631 c 0.049,0.67 0.426,2.983 0.365,4.092 -0.451,6.862 0.646,5.578 0.646,5.578 0.925,0 1.937,-5.529 1.937,-5.529 0,1.431 -0.354,5.688 0.426,7.295 0.913,1.918 1.583,-0.329 1.596,-0.779 0.243,-8.732 0.767,-6.449 0.767,-6.449 0.512,7.095 1.146,8.689 2.266,8.142 0.864,-0.414 0.085,-8.5 0.085,-8.5 1.462,4.804 2.569,5.571 2.569,5.571 2.412,1.687 0.914,-2.99 0.585,-3.915 -1.79,-4.921 -1.839,-6.625 -1.839,-6.625 2.229,4.414 3.921,4.25 3.921,4.25 1.401,-0.444 0.159,-3.239 -1.51,-5.949 l 8.074,0 c 1.717,0 3.118,-1.406 3.118,-3.118 l 0,-58.198 c -0.007,-1.724 -1.401,-3.119 -3.124,-3.119 z m -3.118,58.201 -92.481,0 0,-51.965 92.481,0 0,51.965 z"
         id="path45"
         inkscape:connector-curvature="0" /></g></g><g
     id="g47" /><g
     id="g49" /><g
     id="g51" /><g
     id="g53" /><g
     id="g55" /><g
     id="g57" /><g
     id="g59" /><g
     id="g61" /><g
     id="g63" /><g
     id="g65" /><g
     id="g67" /><g
     id="g69" /><g
     id="g71" /><g
     id="g73" /><g
     id="g75" /></svg>