<?xml version="1.0" encoding="iso-8859-1"?>
<!-- Generator: Adobe Illustrator 19.0.0, SVG Export Plug-In . SVG Version: 6.00 Build 0)  -->
<svg version="1.1" id="Layer_1" xmlns="http://www.w3.org/2000/svg" xmlns:xlink="http://www.w3.org/1999/xlink" x="0px" y="0px"
	 viewBox="0 0 512 512" style="enable-background:new 0 0 512 512;" xml:space="preserve">
<g>
	<g>
		<path d="M160.994,348.495c2.424,15.203,8.424,29.227,17.105,41.186l41.186-41.186H160.994z"/>
	</g>
</g>
<g>
	<g>
		<path d="M271.209,238.279v101.307l-71.603,71.603C215.462,422.7,234.95,429.5,256,429.5c53.052,0,96.214-43.161,96.214-96.214
			C352.214,285.409,317.06,245.593,271.209,238.279z"/>
	</g>
</g>
<g>
	<g>
		<path d="M160.994,318.078h79.798v-79.799C199.896,244.802,167.516,277.183,160.994,318.078z"/>
	</g>
</g>
<g>
	<g>
		<path d="M257.618,90.296c-3.063,0-5.555,2.492-5.555,5.555c0,3.063,2.492,5.555,5.555,5.555h3.468v-11.11H257.618z"/>
	</g>
</g>
<g>
	<g>
		<path d="M294.972,131.823h-3.469v11.11h3.469c3.063,0,5.555-2.492,5.555-5.555C300.527,134.315,298.035,131.823,294.972,131.823z"
			/>
	</g>
</g>
<g>
	<g>
		<polygon points="370.572,8.909 370.572,88.21 449.872,88.21 		"/>
	</g>
</g>
<g>
	<g>
		<path d="M340.154,118.627V0H53.219v512h405.563V118.627H340.154z M257.618,59.878h3.468V48.767h30.417v11.111h27.393v30.417
			h-27.393v11.11h3.469c19.835,0,35.972,16.137,35.972,35.972s-16.137,35.972-35.972,35.972h-3.469v11.111h-30.417v-11.111h-27.392
			v-30.417h27.392v-11.11h-3.468c-19.835,0-35.972-16.137-35.972-35.972S237.783,59.878,257.618,59.878z M108.983,50.67h91.305
			v30.417h-91.305V50.67z M200.29,101.406v30.417h-91.305v-30.417H200.29z M108.984,152.142h91.305v30.417h-91.305V152.142z
			 M256,459.918c-69.825,0-126.63-56.806-126.63-126.631S186.176,206.656,256,206.656c69.824,0,126.631,56.807,126.631,126.631
			S325.825,459.918,256,459.918z"/>
	</g>
</g>
<g>
</g>
<g>
</g>
<g>
</g>
<g>
</g>
<g>
</g>
<g>
</g>
<g>
</g>
<g>
</g>
<g>
</g>
<g>
</g>
<g>
</g>
<g>
</g>
<g>
</g>
<g>
</g>
<g>
</g>
</svg>
