<?xml version="1.0" encoding="iso-8859-1"?>
<!-- Generator: Adobe Illustrator 19.0.0, SVG Export Plug-In . SVG Version: 6.00 Build 0)  -->
<svg version="1.1" id="Layer_1" xmlns="http://www.w3.org/2000/svg" xmlns:xlink="http://www.w3.org/1999/xlink" x="0px" y="0px"
	 viewBox="0 0 512 512" style="enable-background:new 0 0 512 512;" xml:space="preserve">
<g>
	<g>
		<path d="M467,133.5c-24.813,0-45,20.187-45,45v72.827l-1.179,1.179c-2.194-4.707-5.22-9.044-9.001-12.825
			c-3.238-3.238-6.884-5.918-10.82-8V84.5H111v147.181c-3.936,2.082-7.582,4.762-10.82,8c-3.782,3.781-6.808,8.117-9.001,12.825
			L90,251.327V178.5c0-24.813-20.187-45-45-45s-45,20.187-45,45v110.213L138.787,427.5H231V306.246L180.795,256.5h150.139
			L280,306.177V427.5h93.213L512,288.713V178.5C512,153.687,491.813,133.5,467,133.5z M201,318.754V397.5h-49.787L30,276.287V178.5
			c0-8.271,6.729-15,15-15s15,6.729,15,15v85.253l100,100v-43.039l-38.607-38.607c-2.833-2.833-4.393-6.6-4.393-10.606
			s1.56-7.773,4.394-10.606c2.833-2.833,6.6-4.394,10.606-4.394c4.007-0.001,7.773,1.56,10.607,4.393L201,318.754z M141,226.5v-112
			h105.043c-26.648,4.723-46.955,28.027-46.955,56c0,27.973,20.307,51.277,46.955,56H141z M229.087,170.5
			c0-14.827,12.073-26.89,26.913-26.89c14.84,0,26.913,12.063,26.913,26.89c0,14.827-12.073,26.89-26.913,26.89
			C241.16,197.39,229.087,185.327,229.087,170.5z M265.957,226.5c26.648-4.723,46.955-28.027,46.955-56
			c0-27.973-20.307-51.277-46.955-56H371v112H265.957z M482,276.287L360.787,397.5H310v-78.677l59.26-57.798l0.133-0.132
			c2.833-2.833,6.6-4.394,10.607-4.394c4.007,0,7.773,1.561,10.607,4.394c2.833,2.833,4.393,6.6,4.393,10.606
			s-1.56,7.773-4.393,10.606L352,320.714v43.039l100-100V178.5c0-8.271,6.729-15,15-15s15,6.729,15,15V276.287z"/>
	</g>
</g>
<g>
</g>
<g>
</g>
<g>
</g>
<g>
</g>
<g>
</g>
<g>
</g>
<g>
</g>
<g>
</g>
<g>
</g>
<g>
</g>
<g>
</g>
<g>
</g>
<g>
</g>
<g>
</g>
<g>
</g>
</svg>
