<?xml version="1.0" encoding="iso-8859-1"?>
<!-- Generator: Adobe Illustrator 19.0.0, SVG Export Plug-In . SVG Version: 6.00 Build 0)  -->
<svg version="1.1" id="Layer_1" xmlns="http://www.w3.org/2000/svg" xmlns:xlink="http://www.w3.org/1999/xlink" x="0px" y="0px"
	 viewBox="0 0 512.001 512.001" style="enable-background:new 0 0 512.001 512.001;" xml:space="preserve">
<g>
	<g>
		<path d="M497,135.103h-90.498c-7.38,0-14.344,1.797-20.496,4.959c-9.508-20.611-30.355-34.958-54.503-34.958
			c-33.083,0-59.999,26.915-59.999,59.999c0,15.684,6.056,29.975,15.944,40.676c-0.294,0.25-0.587,0.501-0.875,0.758l-71.546-71.546
			c31.448-1.831,56.476-27.987,56.476-59.887c0-33.083-26.916-59.999-59.999-59.999c-33.083,0-59.999,26.916-59.999,59.999
			c0,11.123,3.053,21.541,8.349,30.48c-12.653,1.911-23.931,8.945-31.129,20.066c-0.235,0.365-0.463,0.736-0.688,1.109
			c-1.733,2.852-62.023,123.611-62.835,125.496c-4.774,11.044-3.695,9.774-3.695,94.2L7.566,426.939
			c-6.663,10-9.035,21.998-6.679,33.782c4.284,21.429,23.035,36.174,44.093,36.174c15.091,0,29.097-7.489,37.451-20.011
			l54.038-80.66l16.382,66.598c5.028,20.069,22.95,34.073,43.577,34.073c29.405,0.073,50.786-27.669,43.749-55.867L210.165,319.18
			c-1.983-7.931-6.084-15.164-11.841-20.899l-37.061-37.061l17.577-35.152l45.85,45.85c8.5,8.501,19.8,13.182,31.816,13.182
			c11.188,0,21.751-4.062,30.015-11.482c7.966,7.133,18.475,11.482,29.983,11.482h44.999v59.999h-15
			c-24.813,0-44.999,20.187-44.999,44.999v19.38c-17.459,6.192-29.999,22.865-29.999,42.419c0,24.813,20.187,44.999,44.999,44.999
			s44.999-20.187,44.999-44.999c0-19.555-12.541-36.227-29.999-42.419v-19.38c0-8.271,6.729-15,15-15h150.497
			c8.284,0,15-6.716,15-15c0-6.397,0-198.97,0-209.996C511.999,141.819,505.285,135.103,497,135.103z M211.505,45.105
			c16.542,0,29.999,13.458,29.999,29.999s-13.458,29.999-29.999,29.999s-29.999-13.458-29.999-29.999S194.964,45.105,211.505,45.105
			z M121.508,360.099c-0.001,2.971-0.872,5.848-2.502,8.292l-61.514,91.821c-4.581,6.866-13.89,8.781-20.807,4.163
			c-6.879-4.584-8.743-13.915-4.177-20.767l56.46-84.239c1.656-2.47,2.54-5.377,2.54-8.351v-32.283l29.999,29.999V360.099z
			 M245.901,250.705c-0.884-0.884-59.651-59.655-60.637-60.63c-7.207-7.112-19.312-5.152-23.902,3.877
			c-0.015,0.03-0.034,0.056-0.049,0.086l-31.718,63.437c-2.887,5.775-1.755,12.75,2.81,17.315l44.726,44.726
			c1.912,1.904,3.271,4.305,3.917,6.891l30.01,121.842c2.335,9.357-4.679,18.648-14.598,18.648c-0.006,0-0.011,0-0.017,0
			c-6.858,0-12.817-4.672-14.479-11.302l-27.978-113.741c-0.654-2.659-2.023-5.088-3.959-7.024l-2.914-2.914
			c-0.001-0.001-0.002-0.002-0.003-0.003l-51.209-51.209c-4.724-4.724-5.64-11.823-2.75-17.443
			c63.853-127.704,60.129-120.381,60.956-121.591c3.918-5.811,11.435-8.1,17.982-5.484c5.204,2.106,2.275,0.566,95.019,93.309
			c2.834,2.834,4.396,6.601,4.396,10.604C271.504,253.332,255.396,260.2,245.901,250.705z M316.503,466.896c-8.271,0-15-6.729-15-15
			c0-8.271,6.729-15,15-15c8.271,0,15,6.729,15,15C331.503,460.168,324.774,466.896,316.503,466.896z M331.503,135.103
			c16.542,0,29.999,13.458,29.999,29.999s-13.458,29.999-29.999,29.999s-29.999-13.458-29.999-29.999
			S314.961,135.103,331.503,135.103z M482,345.099h-90.498V285.1H482V345.099z M482,255.101H316.503c-8.271,0-15-6.729-15-15
			c0-8.271,6.729-15,15-15h89.998H482V255.101z M482,195.102h-75.499c-8.271,0-15-6.729-15-15c0-8.271,6.729-15,15-15H482V195.102z"
			/>
	</g>
</g>
<g>
</g>
<g>
</g>
<g>
</g>
<g>
</g>
<g>
</g>
<g>
</g>
<g>
</g>
<g>
</g>
<g>
</g>
<g>
</g>
<g>
</g>
<g>
</g>
<g>
</g>
<g>
</g>
<g>
</g>
</svg>
